<svg xmlns="http://www.w3.org/2000/svg" viewBox="0 0 32 32" shape-rendering="crispEdges">
  <rect width="32" height="32" fill="#161815"/>
  <g fill="#f4f1ea">
    <rect x="2" y="2" width="6" height="6"/>
    <rect x="10" y="2" width="6" height="6"/>
    <rect x="18" y="2" width="6" height="6"/>
    <rect x="26" y="2" width="6" height="6"/>
    <rect x="2" y="10" width="6" height="6"/>
    <rect x="18" y="10" width="6" height="6"/>
    <rect x="26" y="10" width="6" height="6"/>
    <rect x="2" y="18" width="6" height="6"/>
    <rect x="10" y="18" width="6" height="6"/>
    <rect x="26" y="18" width="6" height="6"/>
    <rect x="2" y="26" width="6" height="6"/>
    <rect x="10" y="26" width="6" height="6"/>
    <rect x="18" y="26" width="6" height="6"/>
    <rect x="26" y="26" width="6" height="6"/>
  </g>
  <g fill="#3f5a45">
    <rect x="10" y="10" width="6" height="6"/>
    <rect x="18" y="18" width="6" height="6"/>
  </g>
</svg>
